<svg width="24" height="32" viewBox="0 0 24 32" fill="none" xmlns="http://www.w3.org/2000/svg">
<g clip-path="url(#clip0_33_75)">
<path d="M6.04276 14.0144H9.66226V12.8168C9.66226 12.42 9.96676 12.0952 10.3388 12.0952H13.6628C14.0348 12.0952 14.3393 12.42 14.3393 12.8168V14.0144H17.9573C19.371 14.0144 21.0323 12.4968 22.0673 11.3216V8.46401C22.0673 7.59041 21.4035 6.88241 20.5845 6.88241H16.6853V5.19281C16.6853 4.15041 15.8895 3.30321 14.9145 3.30321H9.08626C8.10901 3.30321 7.31401 4.15121 7.31401 5.19281V6.88241H3.41476C2.59576 6.88241 1.93201 7.59041 1.93201 8.46401V11.3208C2.96926 12.496 4.63051 14.0144 6.04276 14.0144ZM8.39476 5.19281C8.39476 4.78561 8.70526 4.45441 9.08626 4.45441H14.9145C15.2955 4.45441 15.606 4.78561 15.606 5.19281V6.88241H8.39476V5.19281Z" fill="currentColor"/>
<path d="M17.9572 15.1656H14.3392V16.3632C14.3392 16.76 14.0347 17.0856 13.6627 17.0856H10.3387C9.96674 17.0856 9.66224 16.76 9.66224 16.3632V15.1656H6.04274C4.54574 15.1656 3.03074 14.02 1.93274 12.9392V20.7168C1.93274 21.5896 2.59649 22.2976 3.41549 22.2976H20.5867C21.4057 22.2976 22.0695 21.5896 22.0695 20.7168V12.9392C20.9692 14.02 19.4557 15.1656 17.9572 15.1656Z" fill="currentColor"/>
</g>
<defs>
<clipPath id="clip0_33_75">
<rect width="24" height="32" fill="white"/>
</clipPath>
</defs>
</svg>
