<svg width="24" height="24" viewBox="0 0 24 24" fill="none" xmlns="http://www.w3.org/2000/svg">
<path d="M4.79995 9.12H5.99995C6.33595 9.12 6.59995 8.9088 6.59995 8.64V7.68C6.59995 7.4112 6.33595 7.2 5.99995 7.2H4.79995C4.46395 7.2 4.19995 7.4112 4.19995 7.68V8.64C4.19995 8.9088 4.46395 9.12 4.79995 9.12Z" fill="currentColor"/>
<path d="M8.40005 9.12H9.60005C9.93605 9.12 10.2 8.9088 10.2 8.64V7.68C10.2 7.4112 9.93605 7.2 9.60005 7.2H8.40005C8.06405 7.2 7.80005 7.4112 7.80005 7.68V8.64C7.80005 8.9088 8.06405 9.12 8.40005 9.12Z" fill="currentColor"/>
<path d="M4.79995 12H5.99995C6.33595 12 6.59995 11.7888 6.59995 11.52V10.56C6.59995 10.2912 6.33595 10.08 5.99995 10.08H4.79995C4.46395 10.08 4.19995 10.2912 4.19995 10.56V11.52C4.19995 11.7888 4.46395 12 4.79995 12Z" fill="currentColor"/>
<path d="M8.40005 12H9.60005C9.93605 12 10.2 11.7888 10.2 11.52V10.56C10.2 10.2912 9.93605 10.08 9.60005 10.08H8.40005C8.06405 10.08 7.80005 10.2912 7.80005 10.56V11.52C7.80005 11.7888 8.06405 12 8.40005 12Z" fill="currentColor"/>
<path d="M15 10.08H13.8C13.464 10.08 13.2 10.2912 13.2 10.56V11.52C13.2 11.7888 13.464 12 13.8 12H15C15.336 12 15.6 11.7888 15.6 11.52V10.56C15.6 10.2912 15.336 10.08 15 10.08Z" fill="currentColor"/>
<path d="M18.6 10.08H17.4C17.064 10.08 16.8 10.2912 16.8 10.56V11.52C16.8 11.7888 17.064 12 17.4 12H18.6C18.936 12 19.2 11.7888 19.2 11.52V10.56C19.2 10.2912 18.936 10.08 18.6 10.08Z" fill="currentColor"/>
<path d="M12 4.32V3.36C12 3.0912 11.736 2.88 11.4 2.88H10.2C9.86398 2.88 9.59998 3.0912 9.59998 3.36V4.32C9.59998 4.5888 9.86398 4.8 10.2 4.8H11.4C11.736 4.8 12 4.5888 12 4.32Z" fill="currentColor"/>
<path d="M13.8 4.8H15C15.336 4.8 15.6 4.5888 15.6 4.32V3.36C15.6 3.0912 15.336 2.88 15 2.88H13.8C13.464 2.88 13.2 3.0912 13.2 3.36V4.32C13.2 4.5888 13.464 4.8 13.8 4.8Z" fill="currentColor"/>
<path d="M13.8 7.2H15C15.336 7.2 15.6 6.9888 15.6 6.72V5.76C15.6 5.4912 15.336 5.28 15 5.28H13.8C13.464 5.28 13.2 5.4912 13.2 5.76V6.72C13.2 6.9888 13.464 7.2 13.8 7.2Z" fill="currentColor"/>
<path d="M1.79995 15.84H2.99995C3.33595 15.84 3.59995 15.6288 3.59995 15.36C3.59995 15.0912 3.33595 14.88 2.99995 14.88H1.79995C1.46395 14.88 1.19995 15.0912 1.19995 15.36C1.19995 15.6288 1.46395 15.84 1.79995 15.84Z" fill="currentColor"/>
<path d="M7.8 15.84C8.136 15.84 8.4 15.6288 8.4 15.36C8.4 15.0912 8.136 14.88 7.8 14.88H6.6C6.264 14.88 6 15.0912 6 15.36C6 15.6288 6.264 15.84 6.6 15.84H7.8Z" fill="currentColor"/>
<path d="M12.6 15.84C12.936 15.84 13.2 15.6288 13.2 15.36C13.2 15.0912 12.936 14.88 12.6 14.88H11.4C11.064 14.88 10.8 15.0912 10.8 15.36C10.8 15.6288 11.064 15.84 11.4 15.84H12.6Z" fill="currentColor"/>
<path d="M17.4 15.84C17.736 15.84 18 15.6288 18 15.36C18 15.0912 17.736 14.88 17.4 14.88H16.2C15.864 14.88 15.6 15.0912 15.6 15.36C15.6 15.6288 15.864 15.84 16.2 15.84H17.4Z" fill="currentColor"/>
<path d="M22.2 14.88H21C20.664 14.88 20.4 15.0912 20.4 15.36C20.4 15.6288 20.664 15.84 21 15.84H22.2C22.536 15.84 22.8 15.6288 22.8 15.36C22.8 15.0912 22.536 14.88 22.2 14.88Z" fill="currentColor"/>
<path d="M22.2 16.8H1.79995C1.46395 16.8 1.19995 17.0112 1.19995 17.28C1.19995 17.5488 1.46395 17.76 1.79995 17.76H22.2C22.536 17.76 22.8 17.5488 22.8 17.28C22.8 17.0112 22.536 16.8 22.2 16.8Z" fill="currentColor"/>
<path d="M22.2 12.96H21.6V8.64C21.6 8.3712 21.336 8.16 21 8.16H18V1.44C18 1.1712 17.736 0.959999 17.4 0.959999H7.79995C7.46395 0.959999 7.19995 1.1712 7.19995 1.44V5.28H2.99995C2.66395 5.28 2.39995 5.4912 2.39995 5.76V12.96H1.79995C1.46395 12.96 1.19995 13.1712 1.19995 13.44C1.19995 13.7088 1.46395 13.92 1.79995 13.92H2.99995H3.59995H18.6H21H22.2C22.536 13.92 22.8 13.7088 22.8 13.44C22.8 13.1712 22.536 12.96 22.2 12.96ZM8.39995 1.92H16.8V8.16H12V5.76C12 5.4912 11.736 5.28 11.4 5.28H8.39995V1.92ZM10.8 12.96H3.59995V6.24H10.8V12.96ZM18.6 12.96H12V9.12H20.4V12.96H18.6Z" fill="currentColor"/>
</svg>
