<svg width="24" height="24" viewBox="0 0 24 24" fill="none" xmlns="http://www.w3.org/2000/svg">
<path d="M14.3671 5.55286H21.0224C21.3001 5.55286 21.5257 5.79973 21.5257 6.10541V10.0719V10.8332C21.7227 10.7487 21.9317 10.7064 22.1399 10.7064C22.5746 10.7081 23.0085 10.8887 23.3367 11.2499L23.5065 11.4363C23.8347 11.7966 23.9992 12.2738 24 12.7501C24.0022 13.2256 23.837 13.7028 23.5072 14.0648L21.5257 16.2402V23.4474C21.5257 23.7523 21.3009 24 21.0224 24H2.64629C2.36861 24 2.14299 23.7531 2.14299 23.4474V13.7931C0.817958 12.331 0 10.3154 0 8.08947C0 5.85606 0.824749 3.83307 2.15808 2.36927C3.49141 0.905457 5.33333 0 7.36841 0C9.40275 0 11.2454 0.905457 12.5787 2.36927C13.3839 3.25318 14.0026 4.34006 14.3678 5.55369L14.3671 5.55286ZM9.32955 1.44144C9.52121 1.76452 9.69627 2.13482 9.85247 2.54737C10.0819 3.15295 10.2743 3.85544 10.4199 4.6267C11.1285 4.46764 11.8287 4.25308 12.5146 3.98219C12.3184 3.68644 12.1011 3.40727 11.8664 3.1488C11.1639 2.37755 10.2969 1.78523 9.3288 1.44144H9.32955ZM10.5882 5.71523C10.6795 6.46495 10.7285 7.26188 10.7285 8.08781C10.7285 8.91374 10.6795 9.71068 10.5882 10.4604C11.4212 10.646 12.2445 10.9036 13.0496 11.2341C13.485 10.2889 13.7302 9.21943 13.7302 8.08781C13.7302 6.9562 13.4842 5.88671 13.0496 4.94149C12.2445 5.27203 11.422 5.5305 10.5882 5.71523ZM10.4207 11.5489C10.275 12.321 10.0826 13.0227 9.85323 13.6291C9.69703 14.0408 9.52197 14.4119 9.33031 14.735C10.2984 14.3904 11.1647 13.7989 11.8679 13.0276C12.1034 12.7692 12.3199 12.4908 12.5161 12.1943C11.8295 11.9234 11.1292 11.708 10.4214 11.5498L10.4207 11.5489ZM5.40728 14.7342C5.21561 14.4111 5.0398 14.04 4.8836 13.6282C4.65421 13.0227 4.4618 12.321 4.31541 11.5489C3.60686 11.708 2.90662 11.9225 2.22071 12.1934C2.4169 12.4892 2.63346 12.7675 2.86889 13.026L2.99038 13.1561L2.9949 13.161C3.67402 13.8668 4.49575 14.4103 5.40652 14.7342H5.40728ZM4.14789 10.4604C4.05659 9.71068 4.00754 8.91374 4.00754 8.08781C4.00754 7.26188 4.05659 6.46495 4.14789 5.71523C3.31484 5.52967 2.4916 5.27203 1.68647 4.94149C1.25108 5.88754 1.00585 6.9562 1.00585 8.08781C1.00585 9.22025 1.25108 10.2889 1.68647 11.2341C2.4916 10.9036 3.31409 10.6451 4.14789 10.4604ZM4.31541 4.62587C4.46104 3.85378 4.65346 3.15212 4.8836 2.54655C5.0398 2.13482 5.21486 1.76452 5.40652 1.44061C4.4384 1.78441 3.5714 2.37672 2.86889 3.14798C2.63346 3.40644 2.41615 3.68479 2.22071 3.98136C2.90737 4.25225 3.60762 4.46681 4.31541 4.62587ZM8.9251 2.96904C8.4882 1.81588 7.93434 1.10262 7.36766 1.10262C6.80173 1.10262 6.24787 1.81588 5.81097 2.96904C5.60799 3.50419 5.4367 4.1255 5.30616 4.81143C5.98981 4.91416 6.67949 4.96469 7.36841 4.96469C8.05734 4.96469 8.74627 4.91416 9.42991 4.81143C9.29861 4.1255 9.12808 3.50419 8.9251 2.96904ZM5.13865 5.89997C5.05715 6.58838 5.01263 7.32401 5.01263 8.08698C5.01263 8.85078 5.0564 9.58476 5.13865 10.274C5.87813 10.1613 6.62365 10.105 7.36766 10.105C8.11242 10.105 8.85719 10.1613 9.59667 10.274C9.67817 9.58476 9.72268 8.85078 9.72268 8.08698C9.72268 7.32318 9.67892 6.58921 9.59667 5.89997C8.85719 6.01263 8.11242 6.06896 7.36766 6.06896C6.62289 6.06896 5.87813 6.01263 5.13789 5.89997H5.13865ZM5.30616 11.3634C5.43746 12.0493 5.60875 12.6706 5.81097 13.2058C6.24787 14.3589 6.80173 15.073 7.36766 15.073C7.93359 15.073 8.4882 14.3597 8.9251 13.2066C9.12808 12.6714 9.29861 12.0501 9.42991 11.3642C8.74627 11.2615 8.05734 11.2109 7.36766 11.2109C6.67873 11.2109 5.98981 11.2623 5.30541 11.3642L5.30616 11.3634ZM3.14884 14.7201V22.8932H20.5191V17.3429L17.359 20.8123C17.2911 20.8868 17.2088 20.9357 17.1213 20.9589L14.5504 21.7625C14.2833 21.8453 14.0056 21.6755 13.9294 21.383C13.903 21.2803 13.9045 21.1768 13.9294 21.0807L14.6674 18.2367C14.6916 18.1431 14.7368 18.0619 14.7957 17.9973L20.5191 11.7154V10.6228H14.3663C14.0019 11.8372 13.3824 12.9241 12.578 13.8072C11.2447 15.271 9.40275 16.1765 7.36766 16.1765C5.79815 16.1765 4.34408 15.638 3.14884 14.7193V14.7201ZM14.6214 9.51848H20.5191V6.65631H14.6214C14.6968 7.12105 14.7361 7.59905 14.7361 8.08698C14.7361 8.57492 14.6968 9.05374 14.6214 9.51848ZM21.3944 12.3127L21.3612 12.3492L15.5986 18.6766L15.1443 20.4287L16.7402 19.93L22.7957 13.282C22.9292 13.1353 22.9956 12.9415 22.9956 12.7485C22.9979 12.5571 22.93 12.3633 22.7949 12.215L22.6251 12.0286C22.4901 11.8803 22.3143 11.8066 22.1392 11.8066C21.9717 11.809 21.8034 11.8745 21.6736 12.0062L21.3944 12.3127Z" fill="currentColor"/>
</svg>
