<svg width="29" height="29" viewBox="0 0 29 29" fill="none" xmlns="http://www.w3.org/2000/svg">
<path d="M28.837 8.8923L24.102 4.87337C23.9974 4.78466 23.8558 4.73496 23.7081 4.73496H21.6036V4.49156C21.6036 4.36607 21.5449 4.24599 21.4403 4.15721L16.7054 0.138475C16.6011 0.0498272 16.4594 0 16.3117 0H1.67083C0.749529 0 0 0.636087 0 1.4181V22.8467C0 23.6286 0.749529 24.265 1.67083 24.265H7.39636V27.5819C7.39636 28.3637 8.14589 29 9.06712 29H27.3291C28.2505 29 29 28.3639 29 27.5819V9.22646C29.0001 9.10117 28.9414 8.98095 28.837 8.8923ZM1.85658 1.57569H15.3961V4.77734C15.3961 5.10063 15.7049 5.36268 16.0856 5.36268H19.7472L19.7481 22.6892H1.85658V1.57569ZM9.25287 27.4242V24.2649H19.9328C20.854 24.2649 21.6037 23.6287 21.6037 22.8467V6.31072H22.7925V9.51244C22.7925 9.83552 23.1015 10.0976 23.482 10.0976H27.1438L27.1446 27.4242H9.25287Z" fill="currentColor"/>
<path d="M24.0972 22.9624H22.797C22.5483 22.9624 22.3457 23.134 22.3457 23.3454V26.1616C22.3457 26.3728 22.5482 26.5447 22.797 26.5447H24.0972C25.2834 26.5447 26.2484 25.7421 26.2484 24.7555C26.2484 23.7669 25.2834 22.9624 24.0972 22.9624ZM24.0972 25.7383H23.2959V23.7688H24.0972C24.7595 23.7688 25.2985 24.2115 25.2985 24.7557C25.2985 25.2974 24.7595 25.7383 24.0972 25.7383Z" fill="currentColor"/>
</svg>
