<svg width="25" height="25" viewBox="0 0 25 25" fill="none" xmlns="http://www.w3.org/2000/svg">
<path d="M1.8091 10.6383H9.00954C9.9887 10.6383 10.8155 9.92214 10.8155 8.94271V1.74245C10.8155 0.763021 9.9887 0 9.00954 0H1.8091C0.829939 0 0 0.763021 0 1.74245V8.94297C0 9.92214 0.829939 10.6383 1.8091 10.6383ZM1.77316 1.77318H9.04261V8.86536H1.77316V1.77318Z" fill="currentColor"/>
<path d="M16.1017 10.6383H23.3021C24.2813 10.6383 25 9.92214 25 8.94271V1.74245C24.9998 0.763021 24.2813 0 23.3019 0H16.1014C15.1223 0 14.3613 0.763021 14.3613 1.74245V8.94297C14.3616 9.92214 15.1223 10.6383 16.1017 10.6383ZM16.1345 1.77318H23.2266V8.86536H16.1345V1.77318Z" fill="currentColor"/>
<path d="M1.8091 25H9.00954C9.9887 25 10.8155 24.2146 10.8155 23.2354V16.0349C10.8155 15.0557 9.9887 14.1844 9.00954 14.1844H1.8091C0.829939 14.1844 0 15.0557 0 16.0349V23.2354C0 24.2146 0.829939 25 1.8091 25ZM1.77316 15.9576H9.04261V23.2271H1.77316V15.9576Z" fill="currentColor"/>
<path d="M16.1017 25H23.3021C24.2813 25 25 24.2146 25 23.2354V16.0349C25 15.0557 24.2815 14.1844 23.3021 14.1844H16.1017C15.1225 14.1844 14.3616 15.0557 14.3616 16.0349V23.2354C14.3616 24.2146 15.1222 25 16.1017 25ZM16.1345 15.9576H23.2266V23.2271H16.1345V15.9576Z" fill="currentColor"/>
</svg>
