<svg width="29" height="29" viewBox="0 0 29 29" fill="none" xmlns="http://www.w3.org/2000/svg">
<path d="M9.21082 9.59004L7.98047 9.67867L9.20523 24.7051L10.4356 24.6165L9.21082 9.59004Z" fill="currentColor"/>
<path d="M15.1167 9.63382H13.8828V24.6599H15.1167V9.63382Z" fill="currentColor"/>
<path d="M19.788 9.59031L18.5664 24.6166L19.7968 24.705L21.0183 9.6787L19.788 9.59031Z" fill="currentColor"/>
<path d="M27.1873 4.13021H23.9807V1.62446C23.9807 0.728964 23.2059 0 22.2533 0H6.74639C5.79381 0 5.019 0.728964 5.019 1.62446V4.13021H1.81236H0V5.29019H1.96525L4.78157 26.6557C4.95784 27.9923 6.17128 29 7.60404 29H21.3956C22.8284 29 24.0419 27.9923 24.2181 26.6557L27.0344 5.29025H29V4.13021H27.1873ZM6.25293 1.62446C6.25293 1.36845 6.47438 1.15998 6.74639 1.15998H22.2533C22.5253 1.15998 22.7468 1.36839 22.7468 1.62446V4.13021H6.25293V1.62446ZM22.9938 26.5129C22.8938 27.2696 22.2069 27.84 21.3956 27.84H7.60404C6.79276 27.84 6.10586 27.2696 6.00586 26.5129L3.2084 5.29025H5.01894H23.9807H25.7912L22.9938 26.5129Z" fill="currentColor"/>
</svg>
