<svg xmlns="http://www.w3.org/2000/svg" width="22" height="19" viewBox="0 0 22 19" fill="none">
  <path d="M10.1952 4.64435C10.1952 4.81251 10.1843 4.98068 10.1624 5.14885C10.1733 5.06931 10.1843 4.9875 10.193 4.90796C10.1493 5.23293 10.0662 5.54881 9.94595 5.85106C9.97437 5.77834 10.005 5.70562 10.0334 5.6329C9.91316 5.92833 9.75793 6.2033 9.57209 6.45782C9.618 6.39647 9.66392 6.33511 9.70983 6.27375C9.51743 6.53282 9.29443 6.76462 9.04519 6.9646C9.10422 6.91687 9.16325 6.86915 9.22228 6.82143C8.97741 7.01459 8.71068 7.17594 8.42865 7.30093C8.49861 7.27139 8.56857 7.23957 8.63854 7.21003C8.34776 7.33502 8.04386 7.42138 7.73122 7.46683C7.80774 7.45546 7.88644 7.4441 7.96296 7.43501C7.63939 7.47819 7.31582 7.47819 6.99224 7.43501C7.06876 7.44637 7.14747 7.45774 7.22399 7.46683C6.91135 7.42138 6.60745 7.33502 6.31667 7.21003C6.38663 7.23957 6.45659 7.27139 6.52656 7.30093C6.24234 7.17594 5.97779 7.01459 5.73293 6.82143C5.79196 6.86915 5.85099 6.91687 5.91002 6.9646C5.66078 6.76462 5.43777 6.53282 5.24538 6.27375C5.29129 6.33511 5.3372 6.39647 5.38312 6.45782C5.19728 6.2033 5.04205 5.92605 4.9218 5.6329C4.95023 5.70562 4.98083 5.77834 5.00926 5.85106C4.88901 5.54881 4.80593 5.23293 4.7622 4.90796C4.77313 4.9875 4.78407 5.06931 4.79281 5.14885C4.75127 4.81251 4.75127 4.47618 4.79281 4.13985C4.78188 4.21938 4.77095 4.3012 4.7622 4.38073C4.80593 4.05576 4.88901 3.73988 5.00926 3.43763C4.98083 3.51036 4.95023 3.58308 4.9218 3.6558C5.04205 3.36037 5.19728 3.08539 5.38312 2.83087C5.3372 2.89223 5.29129 2.95359 5.24538 3.01494C5.43777 2.75588 5.66078 2.52408 5.91002 2.3241C5.85099 2.37182 5.79196 2.41954 5.73293 2.46727C5.97779 2.2741 6.24452 2.11275 6.52656 1.98776C6.45659 2.0173 6.38663 2.04912 6.31667 2.07866C6.60745 1.95367 6.91135 1.86732 7.22399 1.82187C7.14747 1.83323 7.06876 1.84459 6.99224 1.85368C7.31582 1.8105 7.63939 1.8105 7.96296 1.85368C7.88644 1.84232 7.80774 1.83096 7.73122 1.82187C8.04386 1.86732 8.34776 1.95367 8.63854 2.07866C8.56857 2.04912 8.49861 2.0173 8.42865 1.98776C8.71287 2.11275 8.97741 2.2741 9.22228 2.46727C9.16325 2.41954 9.10422 2.37182 9.04519 2.3241C9.29443 2.52408 9.51743 2.75588 9.70983 3.01494C9.66392 2.95359 9.618 2.89223 9.57209 2.83087C9.75793 3.08539 9.91316 3.36264 10.0334 3.6558C10.005 3.58308 9.97437 3.51036 9.94595 3.43763C10.0662 3.73988 10.1493 4.05576 10.193 4.38073C10.1821 4.3012 10.1711 4.21938 10.1624 4.13985C10.1843 4.30574 10.1952 4.47391 10.1952 4.64435C10.1974 5.11931 10.5953 5.57608 11.0697 5.55336C11.542 5.53063 11.9464 5.15339 11.9442 4.64435C11.9399 3.71716 11.6753 2.76497 11.1506 2.00821C10.8489 1.57189 10.5144 1.21737 10.1034 0.894676C9.75355 0.6197 9.3622 0.419717 8.95118 0.262913C7.26553 -0.382485 5.21477 0.192465 4.0757 1.63552C3.92047 1.83323 3.76962 2.03776 3.64062 2.25819C3.50726 2.48999 3.40232 2.73542 3.30612 2.9854C3.13559 3.41945 3.05469 3.87851 3.01753 4.34437C2.94538 5.26929 3.17931 6.23966 3.64062 7.03277C4.08882 7.80316 4.76658 8.46901 5.56021 8.83943C5.78758 8.94624 6.02152 9.04623 6.26201 9.11668C6.52 9.19168 6.78236 9.23031 7.04909 9.2644C7.50384 9.32121 7.96515 9.27803 8.41334 9.18486C9.26601 9.0076 10.0837 8.52582 10.6849 7.87588C11.2927 7.21912 11.7387 6.35783 11.8721 5.45109C11.9114 5.18294 11.9442 4.91478 11.9442 4.64435C11.9464 4.16939 11.5398 3.71261 11.0697 3.73534C10.5953 3.75579 10.1974 4.13303 10.1952 4.64435Z" fill="currentColor"/>
  <path d="M17.7444 6.13286C17.7444 6.24876 17.7357 6.36466 17.7226 6.47828C17.7335 6.39874 17.7444 6.31693 17.7532 6.23739C17.7226 6.45101 17.6701 6.65781 17.5914 6.85552C17.6198 6.7828 17.6504 6.71008 17.6788 6.63736C17.5958 6.83961 17.4908 7.03051 17.3618 7.20549C17.4077 7.14413 17.4537 7.08277 17.4996 7.02142C17.3706 7.19413 17.2219 7.34866 17.0557 7.48274C17.1148 7.43502 17.1738 7.38729 17.2328 7.33957C17.0645 7.47365 16.8808 7.58273 16.6863 7.66909C16.7562 7.63954 16.8262 7.60773 16.8961 7.57819C16.7037 7.66 16.5048 7.71454 16.3015 7.74635C16.378 7.73499 16.4567 7.72363 16.5332 7.71454C16.3124 7.74408 16.0894 7.74408 15.8664 7.71454C15.9429 7.7259 16.0216 7.73726 16.0981 7.74635C15.8926 7.71454 15.6937 7.66 15.5035 7.57819C15.5734 7.60773 15.6434 7.63954 15.7133 7.66909C15.5188 7.58273 15.3351 7.47365 15.1668 7.33957C15.2258 7.38729 15.2848 7.43502 15.3439 7.48274C15.1777 7.34866 15.029 7.19413 14.9 7.02142C14.946 7.08277 14.9919 7.14413 15.0378 7.20549C14.9088 7.03051 14.8038 6.83961 14.7208 6.63736C14.7492 6.71008 14.7798 6.7828 14.8082 6.85552C14.7295 6.65554 14.677 6.44874 14.6464 6.23739C14.6574 6.31693 14.6683 6.39874 14.677 6.47828C14.6486 6.24876 14.6486 6.01696 14.677 5.78516C14.6661 5.8647 14.6552 5.94651 14.6464 6.02605C14.677 5.81243 14.7295 5.60563 14.8082 5.40792C14.7798 5.48064 14.7492 5.55336 14.7208 5.62608C14.8038 5.42383 14.9088 5.23294 15.0378 5.05795C14.9919 5.11931 14.946 5.18067 14.9 5.24203C15.029 5.06931 15.1777 4.91478 15.3439 4.7807C15.2848 4.82843 15.2258 4.87615 15.1668 4.92387C15.3351 4.78979 15.5188 4.68071 15.7133 4.59436C15.6434 4.6239 15.5734 4.65571 15.5035 4.68526C15.6959 4.60345 15.8948 4.5489 16.0981 4.51709C16.0216 4.52845 15.9429 4.53982 15.8664 4.54891C16.0872 4.51936 16.3102 4.51936 16.5332 4.54891C16.4567 4.53754 16.378 4.52618 16.3015 4.51709C16.507 4.5489 16.7059 4.60345 16.8961 4.68526C16.8262 4.65571 16.7562 4.6239 16.6863 4.59436C16.8808 4.68071 17.0645 4.78979 17.2328 4.92387C17.1738 4.87615 17.1148 4.82843 17.0557 4.7807C17.2219 4.91478 17.3706 5.06931 17.4996 5.24203C17.4537 5.18067 17.4077 5.11931 17.3618 5.05795C17.4908 5.23294 17.5958 5.42383 17.6788 5.62608C17.6504 5.55336 17.6198 5.48064 17.5914 5.40792C17.6701 5.6079 17.7226 5.8147 17.7532 6.02605C17.7422 5.94651 17.7313 5.8647 17.7226 5.78516C17.7357 5.90106 17.7444 6.01696 17.7444 6.13286C17.7466 6.36693 17.8406 6.61009 18.0002 6.77598C18.1511 6.93279 18.4003 7.05323 18.619 7.04187C19.0912 7.01914 19.4957 6.6419 19.4935 6.13286C19.4891 5.46246 19.3011 4.76252 18.925 4.21257C18.7152 3.90805 18.49 3.65353 18.2057 3.424C17.9193 3.19448 17.622 3.03086 17.2809 2.89905C16.6666 2.66043 15.9451 2.65134 15.3154 2.83315C14.7055 3.0104 14.1108 3.38537 13.7085 3.89896C13.5883 4.05122 13.4702 4.20575 13.374 4.37392C13.2712 4.54891 13.1969 4.73752 13.1226 4.92614C12.9979 5.2443 12.9411 5.58291 12.9149 5.92606C12.8624 6.59873 13.0395 7.31457 13.374 7.88952C13.6976 8.44629 14.1917 8.93943 14.7645 9.20986C14.9438 9.29394 15.1252 9.37575 15.3154 9.4303C15.5056 9.48484 15.7024 9.51211 15.897 9.53483C16.2315 9.57574 16.5704 9.54165 16.8983 9.47575C17.5192 9.35076 18.1205 8.9917 18.5599 8.51901C19.0037 8.04178 19.3383 7.41002 19.4366 6.74871C19.4672 6.54418 19.4935 6.33738 19.4957 6.13058C19.4979 5.65563 19.0912 5.19885 18.6211 5.22157C18.1423 5.24657 17.7488 5.62381 17.7444 6.13286Z" fill="currentColor"/>
  <path d="M13.1991 15.5093C13.1991 15.7979 13.1991 16.0865 13.1991 16.3729C13.1991 16.6683 13.2232 16.9774 13.1904 17.2728C13.2013 17.1933 13.2122 17.1114 13.221 17.0319C13.2101 17.1137 13.1904 17.191 13.1598 17.266C13.1882 17.1933 13.2188 17.1205 13.2472 17.0478C13.2166 17.1205 13.1794 17.1887 13.1335 17.2546C13.1794 17.1933 13.2254 17.1319 13.2713 17.0705C13.2188 17.141 13.1598 17.2023 13.092 17.2569C13.151 17.2092 13.2101 17.1614 13.2691 17.1137C13.2079 17.1614 13.1423 17.2001 13.0701 17.2319C13.1401 17.2023 13.2101 17.1705 13.28 17.141C13.2057 17.1705 13.1335 17.191 13.0548 17.2046C13.1313 17.1933 13.2101 17.1819 13.2866 17.1728C13.1554 17.1887 13.0198 17.1819 12.8865 17.1819C12.6132 17.1819 12.3399 17.1819 12.0688 17.1819C11.1571 17.1819 10.2476 17.1819 9.3359 17.1819C8.22963 17.1819 7.12117 17.1819 6.0149 17.1819C5.06166 17.1819 4.10624 17.1819 3.15301 17.1819C2.70045 17.1819 2.25007 17.1864 1.7975 17.1819C1.75377 17.1819 1.70786 17.1796 1.66413 17.1728C1.74065 17.1842 1.81936 17.1955 1.89588 17.2046C1.81718 17.1933 1.74284 17.1728 1.67069 17.141C1.74065 17.1705 1.81062 17.2023 1.88058 17.2319C1.81062 17.2001 1.74503 17.1614 1.68162 17.1137C1.74065 17.1614 1.79969 17.2092 1.85872 17.2569C1.79094 17.2023 1.73191 17.141 1.67944 17.0705C1.72535 17.1319 1.77126 17.1933 1.81718 17.2546C1.77126 17.191 1.7341 17.1228 1.70349 17.0478C1.73191 17.1205 1.76252 17.1933 1.79094 17.266C1.76252 17.1887 1.74284 17.1114 1.72972 17.0319C1.74065 17.1114 1.75159 17.1933 1.76033 17.2728C1.73191 17.0137 1.75377 16.7433 1.75377 16.4842C1.75377 16.1729 1.75377 15.8615 1.75377 15.5502C1.75377 15.3343 1.7647 15.1207 1.79094 14.9071C1.78001 14.9866 1.76908 15.0684 1.76033 15.148C1.8128 14.7412 1.91556 14.3458 2.0686 13.9685C2.04018 14.0413 2.00957 14.114 1.98115 14.1867C2.12763 13.8276 2.31784 13.4913 2.54522 13.18C2.49931 13.2413 2.45339 13.3027 2.40748 13.364C2.64142 13.0504 2.91252 12.7686 3.21423 12.5255C3.1552 12.5732 3.09617 12.6209 3.03714 12.6686C3.33448 12.4323 3.66024 12.2346 4.00567 12.0823C3.93571 12.1119 3.86575 12.1437 3.79579 12.1732C4.15872 12.0142 4.53913 11.9074 4.93048 11.8528C4.85396 11.8642 4.77526 11.8755 4.69874 11.8846C4.98733 11.846 5.27374 11.846 5.56233 11.846C5.92526 11.846 6.28818 11.846 6.6533 11.846C7.51908 11.846 8.38486 11.846 9.25064 11.846C9.5917 11.846 9.93277 11.8414 10.2738 11.8869C10.1973 11.8755 10.1186 11.8642 10.0421 11.8551C10.4269 11.9119 10.8007 12.0187 11.1593 12.1732C11.0893 12.1437 11.0194 12.1119 10.9494 12.0823C11.297 12.2369 11.6228 12.4368 11.9245 12.6755C11.8655 12.6277 11.8064 12.58 11.7474 12.5323C12.0469 12.7755 12.3158 13.055 12.5498 13.3686C12.5039 13.3072 12.458 13.2459 12.412 13.1845C12.6372 13.4913 12.8253 13.8254 12.9717 14.1822C12.9433 14.1094 12.9127 14.0367 12.8843 13.964C13.0351 14.339 13.1401 14.7321 13.1926 15.1366C13.1816 15.0571 13.1707 14.9753 13.162 14.8957C13.186 15.1003 13.1991 15.3048 13.1991 15.5093C13.2013 15.9843 13.5992 16.441 14.0736 16.4183C14.5459 16.3956 14.9504 16.0184 14.9482 15.5093C14.946 14.9025 14.8542 14.2799 14.6552 13.7095C14.5503 13.4049 14.4235 13.105 14.2726 12.8232C14.1217 12.5414 13.9381 12.2846 13.7457 12.0323C13.0242 11.087 11.9332 10.3961 10.7964 10.1552C10.2432 10.0371 9.69665 10.0302 9.13695 10.0302C8.54227 10.0302 7.94978 10.0302 7.35511 10.0302C6.79104 10.0302 6.22478 10.0302 5.66071 10.0302C5.10102 10.0302 4.54569 10.053 3.99912 10.1916C2.03362 10.6893 0.40919 12.455 0.0899886 14.5435C-0.0127681 15.223 0.00472244 15.8979 0.00472244 16.5842C0.00472244 16.8024 -0.00839544 17.0251 0.00909506 17.2432C0.0440761 17.6932 0.199304 18.075 0.487898 18.4159C0.706529 18.6727 1.04978 18.8817 1.37554 18.9499C1.64008 19.0045 1.88714 18.9999 2.15387 18.9999C2.5168 18.9999 2.88191 18.9999 3.24484 18.9999C4.40577 18.9999 5.56452 18.9999 6.72545 18.9999C8.00007 18.9999 9.27469 18.9999 10.5493 18.9999C11.3539 18.9999 12.1606 18.9999 12.9652 18.9999C13.0286 18.9999 13.092 18.9999 13.1554 18.9999C13.6364 18.9976 14.1305 18.7999 14.4584 18.425C14.7536 18.0886 14.911 17.6955 14.946 17.2432C14.9525 17.166 14.9504 17.0887 14.9504 17.0092C14.9504 16.7047 14.9504 16.4001 14.9504 16.0956C14.9504 15.9002 14.9504 15.7047 14.9504 15.5093C14.9504 15.0343 14.5481 14.5776 14.0758 14.6003C13.5992 14.6207 13.1991 14.998 13.1991 15.5093Z" fill="currentColor"/>
  <path d="M20.2501 14.314C20.2501 14.5776 20.2501 14.8412 20.2501 15.1048C20.2501 15.3707 20.2676 15.6457 20.2457 15.9115C20.2566 15.832 20.2676 15.7502 20.2763 15.6707C20.2697 15.7206 20.2588 15.7684 20.2413 15.8161C20.2697 15.7434 20.3004 15.6707 20.3288 15.5979C20.3091 15.6434 20.2872 15.6843 20.2588 15.7252C20.3047 15.6638 20.3506 15.6025 20.3965 15.5411C20.3659 15.5798 20.3353 15.6138 20.2982 15.6434C20.3572 15.5957 20.4162 15.5479 20.4753 15.5002C20.4359 15.5298 20.3965 15.5525 20.3528 15.5729C20.4228 15.5434 20.4927 15.5116 20.5627 15.482C20.5168 15.5002 20.4709 15.5116 20.4228 15.5184C20.4993 15.507 20.578 15.4957 20.6545 15.4866C20.4272 15.507 20.1932 15.4911 19.9658 15.4911C19.4455 15.4911 18.9273 15.4911 18.407 15.4911C17.233 15.4911 16.0611 15.4911 14.887 15.4911C14.6159 15.4911 14.3448 15.4911 14.0715 15.4911C14.3623 15.7934 14.6553 16.0979 14.9461 16.4001C14.9461 15.9479 14.9679 15.4888 14.9242 15.0389C14.8302 14.0776 14.5329 13.1345 13.9797 12.3482C13.8136 12.1141 13.6387 11.8823 13.4441 11.6733C13.2386 11.4551 13.0134 11.2688 12.7794 11.0824C12.8385 11.5574 12.8975 12.0346 12.9565 12.5096C13.009 12.4618 13.0615 12.4164 13.1161 12.3732C13.0571 12.4209 12.9981 12.4687 12.939 12.5164C13.1511 12.3482 13.3807 12.2096 13.6255 12.1005C13.5556 12.1301 13.4856 12.1619 13.4157 12.1914C13.6671 12.0823 13.9294 12.0073 14.1984 11.9664C14.1218 11.9778 14.0431 11.9892 13.9666 11.9982C14.2005 11.9664 14.4323 11.9664 14.6684 11.9664C14.9723 11.9664 15.2762 11.9664 15.5801 11.9664C16.2775 11.9664 16.9728 11.9664 17.6702 11.9664C17.9216 11.9664 18.1709 11.9619 18.4223 11.996C18.3458 11.9846 18.2671 11.9732 18.1906 11.9642C18.4638 12.0051 18.7284 12.0801 18.9842 12.1891C18.9142 12.1596 18.8443 12.1278 18.7743 12.0982C19.0214 12.2096 19.2553 12.3505 19.4674 12.5209C19.4083 12.4732 19.3493 12.4255 19.2903 12.3778C19.5023 12.5482 19.6904 12.7459 19.8543 12.9641C19.8084 12.9027 19.7625 12.8414 19.7166 12.78C19.8806 13.0027 20.0161 13.2436 20.1233 13.5004C20.0948 13.4277 20.0642 13.3549 20.0358 13.2822C20.1429 13.5458 20.2151 13.8231 20.2523 14.1072C20.2413 14.0276 20.2304 13.9458 20.2216 13.8663C20.2413 14.0185 20.2501 14.1662 20.2501 14.314C20.2501 14.548 20.3463 14.7912 20.5059 14.9571C20.6567 15.1139 20.906 15.2343 21.1246 15.223C21.5968 15.2002 22.0013 14.823 21.9991 14.314C21.9947 13.1391 21.505 11.9551 20.637 11.1892C20.1867 10.7915 19.6838 10.4916 19.1154 10.3166C18.7393 10.2007 18.337 10.1507 17.9457 10.1507C16.8482 10.1507 15.7506 10.1507 14.6553 10.1507C14.3448 10.1507 14.0431 10.1666 13.7327 10.2143C12.9784 10.3302 12.2897 10.7097 11.7191 11.2256C11.5136 11.4119 11.4436 11.721 11.4786 11.9892C11.483 12.1096 11.5179 12.2232 11.5813 12.3278C11.66 12.4641 11.7628 12.5732 11.8962 12.655C11.9049 12.6618 11.9137 12.6686 11.9224 12.6755C11.8634 12.6277 11.8043 12.58 11.7453 12.5323C12.0448 12.7755 12.3138 13.055 12.5477 13.3686C12.5018 13.3072 12.4559 13.2459 12.4099 13.1845C12.6351 13.4913 12.8232 13.8254 12.9696 14.1821C12.9412 14.1094 12.9106 14.0367 12.8822 13.964C13.033 14.339 13.138 14.7321 13.1905 15.1366C13.1795 15.0571 13.1686 14.9753 13.1599 14.8957C13.2211 15.3911 13.1992 15.8979 13.1992 16.3979C13.1992 16.8887 13.5993 17.3069 14.0737 17.3069C14.4235 17.3069 14.7755 17.3069 15.1253 17.3069C15.8949 17.3069 16.6645 17.3069 17.4319 17.3069C18.1818 17.3069 18.9295 17.3069 19.6794 17.3069C19.9134 17.3069 20.1473 17.3069 20.3812 17.3069C20.6392 17.3069 20.8841 17.2955 21.1311 17.1887C21.6581 16.9569 21.9838 16.441 21.9991 15.8456C22.0013 15.7343 21.9991 15.6207 21.9991 15.507C21.9991 15.1343 21.9991 14.7616 21.9991 14.3889C21.9991 14.3617 21.9991 14.3367 21.9991 14.3094C21.9991 13.8344 21.5968 13.3777 21.1246 13.4004C20.6502 13.4277 20.2501 13.8049 20.2501 14.314Z" fill="currentColor"/>
</svg>