<svg width="21" height="19" viewBox="0 0 21 19" fill="none" xmlns="http://www.w3.org/2000/svg">
<path d="M19 8.79999H14C13.858 8.79985 13.7177 8.77552 13.5884 8.72862C13.4591 8.68172 13.3437 8.61333 13.25 8.52799C13.1556 8.44399 13.0846 8.34496 13.0415 8.23741C12.9984 8.12986 12.9843 8.01623 13 7.90399L14 1.50399C14.0295 1.30887 14.1477 1.12925 14.3322 0.999402C14.5166 0.869557 14.7543 0.798574 15 0.799993H18C18.2457 0.798574 18.4834 0.869557 18.6679 0.999402C18.8523 1.12925 18.9705 1.30887 19 1.50399L20 7.90399C20.0171 8.01566 20.0046 8.12895 19.9632 8.23647C19.9218 8.34399 19.8526 8.44333 19.76 8.52799C19.6652 8.61435 19.5482 8.68334 19.4171 8.73028C19.2859 8.77722 19.1437 8.80099 19 8.79999ZM15.13 7.19999H17.87L17.12 2.39999H15.88L15.13 7.19999Z" fill="currentColor"/>
<path d="M20 18.4H9C8.73478 18.4 8.48043 18.3157 8.29289 18.1657C8.10536 18.0156 8 17.8122 8 17.6V15.2H6V17.6C6 17.8122 5.89464 18.0156 5.70711 18.1657C5.51957 18.3157 5.26522 18.4 5 18.4H1C0.734784 18.4 0.48043 18.3157 0.292894 18.1657C0.105357 18.0156 4.68795e-07 17.8122 4.68795e-07 17.6V8.79999C-0.000193413 8.63977 0.0597553 8.48319 0.172081 8.35054C0.284407 8.21789 0.443935 8.11527 0.63 8.05599L10.63 4.85599C10.7814 4.80767 10.9453 4.7897 11.1074 4.80364C11.2695 4.81759 11.4249 4.86302 11.56 4.93599C11.6957 5.00938 11.8068 5.10831 11.8835 5.22409C11.9603 5.33987 12.0002 5.46895 12 5.59999V7.19999H20C20.2652 7.19999 20.5196 7.28428 20.7071 7.43431C20.8946 7.58434 21 7.78782 21 7.99999V17.6C21 17.8122 20.8946 18.0156 20.7071 18.1657C20.5196 18.3157 20.2652 18.4 20 18.4ZM10 16.8H19V8.79999H11C10.7348 8.79999 10.4804 8.71571 10.2929 8.56568C10.1054 8.41565 10 8.21216 10 7.99999V6.78399L2 9.34399V16.8H4V14.4C4 14.1878 4.10536 13.9843 4.29289 13.8343C4.48043 13.6843 4.73478 13.6 5 13.6H9C9.26522 13.6 9.51957 13.6843 9.70711 13.8343C9.89464 13.9843 10 14.1878 10 14.4V16.8Z" fill="currentColor"/>
<path d="M16 12H13C12.7348 12 12.4804 11.9157 12.2929 11.7657C12.1054 11.6157 12 11.4122 12 11.2C12 10.9878 12.1054 10.7843 12.2929 10.6343C12.4804 10.4843 12.7348 10.4 13 10.4H16C16.2652 10.4 16.5196 10.4843 16.7071 10.6343C16.8946 10.7843 17 10.9878 17 11.2C17 11.4122 16.8946 11.6157 16.7071 11.7657C16.5196 11.9157 16.2652 12 16 12Z" fill="currentColor"/>
<path d="M9 12H5C4.73478 12 4.48043 11.9157 4.29289 11.7657C4.10536 11.6157 4 11.4122 4 11.2C4 10.9878 4.10536 10.7843 4.29289 10.6343C4.48043 10.4843 4.73478 10.4 5 10.4H9C9.26522 10.4 9.51957 10.4843 9.70711 10.6343C9.89464 10.7843 10 10.9878 10 11.2C10 11.4122 9.89464 11.6157 9.70711 11.7657C9.51957 11.9157 9.26522 12 9 12Z" fill="currentColor"/>
<path d="M16 15.2H13C12.7348 15.2 12.4804 15.1157 12.2929 14.9657C12.1054 14.8156 12 14.6122 12 14.4C12 14.1878 12.1054 13.9843 12.2929 13.8343C12.4804 13.6843 12.7348 13.6 13 13.6H16C16.2652 13.6 16.5196 13.6843 16.7071 13.8343C16.8946 13.9843 17 14.1878 17 14.4C17 14.6122 16.8946 14.8156 16.7071 14.9657C16.5196 15.1157 16.2652 15.2 16 15.2Z" fill="currentColor"/>
<path d="M16 8.8H15C14.7348 8.8 14.4804 8.71571 14.2929 8.56568C14.1054 8.41565 14 8.21217 14 8C14 7.78782 14.1054 7.58434 14.2929 7.43431C14.4804 7.28428 14.7348 7.2 15 7.2H16C16.2652 7.2 16.5196 7.28428 16.7071 7.43431C16.8946 7.58434 17 7.78782 17 8C17 8.21217 16.8946 8.41565 16.7071 8.56568C16.5196 8.71571 16.2652 8.8 16 8.8Z" fill="currentColor"/>
</svg>
