<svg width="24" height="24" viewBox="0 0 24 24" fill="none" xmlns="http://www.w3.org/2000/svg">
<path d="M14.6698 4.96178C14.6698 3.98044 14.3532 3.02113 13.76 2.20517C13.1668 1.3892 12.3237 0.753241 11.3372 0.377695C10.3508 0.00214987 9.26533 -0.0961099 8.21812 0.0953415C7.17091 0.286793 6.20899 0.759357 5.45399 1.45327C4.699 2.14719 4.18484 3.0313 3.97654 3.99379C3.76823 4.95628 3.87514 5.95393 4.28374 6.86057C4.69234 7.76722 5.38428 8.54214 6.27207 9.08735C7.15985 9.63256 8.20359 9.92356 9.27132 9.92356C10.7031 9.92356 12.0762 9.40081 13.0886 8.47029C14.1011 7.53978 14.6698 6.27773 14.6698 4.96178ZM5.66253 4.96178C5.66255 4.2993 5.87669 3.65175 6.27776 3.10129C6.67884 2.55083 7.24878 2.12228 7.91527 1.87001C8.58176 1.61774 9.31477 1.55311 10.0213 1.68433C10.7278 1.81556 11.376 2.13671 11.8836 2.60705C12.3912 3.0774 12.7354 3.67572 12.8724 4.32613C13.0095 4.97653 12.9332 5.64969 12.6534 6.2602C12.3735 6.87071 11.9026 7.39105 11.3005 7.75521C10.6984 8.11937 9.99209 8.31093 9.27132 8.30559C8.31152 8.29848 7.39367 7.94305 6.71772 7.31673C6.04177 6.69041 5.6625 5.84396 5.66253 4.96178Z" fill="currentColor"/>
<path d="M16.7527 15.0741C16.2594 15.0741 15.7773 15.2085 15.3671 15.4604C14.957 15.7123 14.6374 16.0702 14.4486 16.4891C14.2599 16.9079 14.2105 17.3688 14.3067 17.8134C14.4029 18.258 14.6405 18.6665 14.9892 18.987C15.338 19.3076 15.7824 19.5259 16.2661 19.6143C16.7499 19.7028 17.2513 19.6574 17.707 19.4839C18.1627 19.3104 18.5522 19.0166 18.8263 18.6397C19.1003 18.2627 19.2465 17.8196 19.2465 17.3662C19.2465 16.7583 18.9838 16.1753 18.5161 15.7455C18.0484 15.3156 17.4141 15.0741 16.7527 15.0741ZM16.7527 18.0404C16.6076 18.0404 16.4658 18.0009 16.3452 17.9268C16.2245 17.8527 16.1305 17.7474 16.075 17.6242C16.0195 17.501 16.005 17.3655 16.0333 17.2347C16.0616 17.1039 16.1314 16.9838 16.234 16.8895C16.3366 16.7953 16.4673 16.731 16.6096 16.705C16.7519 16.679 16.8993 16.6924 17.0334 16.7434C17.1674 16.7944 17.282 16.8808 17.3625 16.9917C17.4431 17.1026 17.4862 17.2329 17.4862 17.3662C17.4862 17.545 17.4089 17.7165 17.2713 17.8429C17.1338 17.9694 16.9472 18.0404 16.7527 18.0404Z" fill="currentColor"/>
<path d="M23.2077 15.8292L22.0342 15.6404C21.9671 15.4567 21.8888 15.2766 21.7994 15.1011L22.4742 14.2112C22.5989 14.0552 22.6585 13.8633 22.6424 13.6703C22.6262 13.4774 22.5353 13.2961 22.3862 13.1595L21.2713 12.1348C21.1227 11.9977 20.9255 11.9142 20.7155 11.8994C20.5056 11.8845 20.2968 11.9394 20.1271 12.0539L19.1589 12.6741L18.5721 12.4584L18.3667 11.3797C18.3317 11.1893 18.2237 11.0167 18.0623 10.893C17.9008 10.7694 17.6966 10.7029 17.4865 10.7056H15.9608C15.7507 10.7029 15.5465 10.7694 15.385 10.893C15.2236 11.0167 15.1156 11.1893 15.0806 11.3797L14.9633 12.0539C13.6179 11.2259 12.0348 10.7847 10.4156 10.7865H8.15645C5.99053 10.7936 3.91597 11.5894 2.38718 12.9996C0.858387 14.4098 -1.39124e-05 16.3193 1.69114e-10 18.31V19.6584C1.69114e-10 19.8354 0.0379449 20.0107 0.111668 20.1743C0.185391 20.3379 0.293448 20.4866 0.429671 20.6118C0.565893 20.737 0.727613 20.8363 0.905596 20.904C1.08358 20.9718 1.27434 21.0067 1.46699 21.0067H10.8557C10.8665 21.2106 10.9608 21.4033 11.1198 21.546L12.2347 22.5707C12.3833 22.7078 12.5805 22.7913 12.7905 22.8061C13.0004 22.821 13.2092 22.7661 13.3789 22.6516L14.3471 22.0314L14.9339 22.2471L15.1393 23.3258C15.1743 23.5162 15.2823 23.6888 15.4437 23.8125C15.6052 23.9361 15.8094 24.0026 16.0195 23.9999H17.5452C17.7553 24.0026 17.9595 23.9361 18.121 23.8125C18.2824 23.6888 18.3904 23.5162 18.4254 23.3258L18.6307 22.2471L19.2175 22.0314L20.1857 22.6516C20.3555 22.7661 20.5642 22.821 20.7742 22.8061C20.9841 22.7913 21.1813 22.7078 21.33 22.5707L22.4449 21.546C22.594 21.4094 22.6849 21.2281 22.701 21.0351C22.7172 20.8422 22.6575 20.6503 22.5329 20.4943L21.8581 19.6044C21.9473 19.4289 22.0257 19.2488 22.0928 19.0651L23.2664 18.8763C23.4736 18.8442 23.6615 18.7449 23.796 18.5966C23.9305 18.4482 24.0029 18.2605 23.9999 18.0674V16.6381C24.001 16.4369 23.9205 16.2425 23.774 16.0929C23.6275 15.9433 23.4256 15.8493 23.2077 15.8292ZM1.76038 18.31C1.76037 16.7484 2.4333 15.2504 3.63196 14.1437C4.83062 13.0369 6.45742 12.4116 8.15645 12.4045H10.4156C10.8694 12.4053 11.3218 12.4505 11.7652 12.5393L11.0904 13.1865C10.9413 13.3231 10.8504 13.5044 10.8343 13.6973C10.8181 13.8903 10.8778 14.0822 11.0024 14.2382L11.6772 15.1011C11.5879 15.2766 11.5096 15.4567 11.4425 15.6404L10.2689 15.8292C10.0617 15.8613 9.87387 15.9606 9.73934 16.1089C9.60482 16.2573 9.53248 16.445 9.53542 16.6381V18.0943C9.53248 18.2874 9.60482 18.4751 9.73934 18.6235C9.87387 18.7719 10.0617 18.8711 10.2689 18.9033L11.4425 19.0921L11.5599 19.4157H1.76038V18.31ZM22.1809 17.3932L21.2126 17.555C21.0418 17.5831 20.8838 17.6569 20.7586 17.7673C20.6333 17.8776 20.5463 18.0196 20.5085 18.1752C20.4178 18.5561 20.2592 18.9206 20.039 19.2539C19.9487 19.3886 19.9033 19.5447 19.9086 19.7029C19.9138 19.861 19.9693 20.0143 20.0684 20.1437L20.6552 20.8718L20.5965 20.9258L19.8043 20.3864C19.6635 20.2954 19.4967 20.2443 19.3246 20.2395C19.1525 20.2347 18.9827 20.2764 18.8361 20.3595C18.4738 20.5623 18.0771 20.7081 17.6625 20.7909C17.4837 20.8226 17.3199 20.9044 17.1938 21.0251C17.0677 21.1459 16.9854 21.2996 16.9584 21.4651L16.7823 22.355H16.6943L16.5183 21.4651C16.4877 21.3081 16.4074 21.1629 16.2873 21.0477C16.1672 20.9326 16.0128 20.8526 15.8435 20.8179C15.4289 20.7351 15.0322 20.5893 14.6699 20.3864C14.5233 20.3034 14.3535 20.2617 14.1814 20.2665C14.0093 20.2713 13.8425 20.3224 13.7017 20.4134L12.9095 20.9527L12.8508 20.8988L13.4376 20.1707C13.5367 20.0413 13.5922 19.888 13.5974 19.7298C13.6027 19.5716 13.5573 19.4155 13.4669 19.2808C13.2463 18.9478 13.0876 18.5832 12.9975 18.2022C12.9631 18.0378 12.8741 17.8873 12.7427 17.7714C12.6114 17.6555 12.4441 17.5799 12.264 17.555L11.2958 17.3932V17.3123L12.264 17.1505C12.4348 17.1224 12.5928 17.0486 12.7181 16.9382C12.8434 16.8279 12.9304 16.6859 12.9682 16.5303C13.0583 16.1492 13.2169 15.7847 13.4376 15.4516C13.5279 15.3169 13.5733 15.1608 13.5681 15.0026C13.5629 14.8445 13.5073 14.6912 13.4083 14.5617L12.8215 13.8337L12.8801 13.7797L13.6723 14.3191C13.8132 14.4101 13.9799 14.4612 14.152 14.466C14.3241 14.4708 14.494 14.429 14.6405 14.346C15.0034 14.1441 15.3999 13.9983 15.8141 13.9146C15.9835 13.8798 16.1379 13.7999 16.258 13.6847C16.378 13.5696 16.4584 13.4244 16.4889 13.2674L16.665 12.3775H16.753L16.929 13.2674C16.9668 13.423 17.0538 13.565 17.1791 13.6753C17.3044 13.7857 17.4624 13.8595 17.6332 13.8876C18.0476 13.9709 18.4442 14.1167 18.8068 14.3191C18.9533 14.4021 19.1232 14.4438 19.2953 14.439C19.4674 14.4342 19.6342 14.3831 19.775 14.2921L20.5672 13.7528L20.6258 13.8067L20.039 14.5348C19.94 14.6642 19.8844 14.8175 19.8792 14.9757C19.874 15.1339 19.9194 15.29 20.0097 15.4247C20.2304 15.7577 20.389 16.1223 20.4791 16.5033C20.5169 16.659 20.6039 16.8009 20.7292 16.9113C20.8545 17.0216 21.0125 17.0955 21.1833 17.1235L22.1515 17.2853L22.1809 17.3932Z" fill="currentColor"/>
</svg>
